<?xml version="1.0" encoding="utf-8"?>
<!-- Generator: Adobe Illustrator 24.1.0, SVG Export Plug-In . SVG Version: 6.00 Build 0)  -->
<svg version="1.1" id="Layer_1" xmlns="http://www.w3.org/2000/svg" xmlns:xlink="http://www.w3.org/1999/xlink" x="0px" y="0px"
	 viewBox="0 0 101.02 101.02" enable-background="new 0 0 101.02 101.02" xml:space="preserve">
<g>
	<path fill="none" d="M38.5,64.48L14.08,75.22c3.68,5.44,8.57,10.02,14.42,13.4c5.77,3.33,12.22,5.3,18.81,5.78l-2.91-26.5
		C42.22,67.12,40.22,65.96,38.5,64.48z"/>
	<path fill="none" d="M62.52,36.54L86.93,25.8c-3.68-5.44-8.57-10.02-14.42-13.39C66.73,9.07,60.29,7.1,53.7,6.62l2.91,26.5
		C58.79,33.89,60.79,35.05,62.52,36.54z"/>
	<path fill="none" d="M32.07,50.51c0-1.17,0.12-2.31,0.33-3.42L10.92,31.33C6.29,40.85,5.24,51.58,8.01,61.9
		c0.73,2.71,1.7,5.32,2.9,7.8l21.5-15.77C32.19,52.82,32.07,51.68,32.07,50.51z"/>
	<path fill="none" d="M56.6,67.89l-2.9,26.5c13.39-0.99,25.68-8.09,33.21-19.18L62.52,64.48C60.79,65.96,58.79,67.12,56.6,67.89z"/>
	<path fill="none" d="M44.41,33.12l2.9-26.5c-13.39,0.99-25.68,8.09-33.21,19.18L38.5,36.54C40.22,35.05,42.22,33.89,44.41,33.12z"
		/>
	<path fill="none" d="M93.01,39.12c-0.73-2.71-1.7-5.32-2.9-7.8l-21.5,15.77c0.21,1.11,0.33,2.25,0.33,3.42
		c0,1.17-0.12,2.31-0.33,3.42L90.1,69.68C94.72,60.17,95.77,49.44,93.01,39.12z"/>
	<path fill="#FFFFFF" stroke="#FFFFFF" stroke-miterlimit="10" d="M75.51,7.21C67.63,2.66,59.04,0.5,50.56,0.5c0,0,0,0,0,0
		c-17.28,0-34.09,8.97-43.35,25.01C-6.6,49.42,1.59,80,25.51,93.81c7.87,4.55,16.47,6.71,24.95,6.71c17.28,0,34.09-8.97,43.35-25.01
		C107.62,51.59,99.42,21.01,75.51,7.21z M72.51,12.4c5.85,3.38,10.74,7.96,14.42,13.39L62.52,36.54c-1.72-1.48-3.72-2.65-5.91-3.41
		L53.7,6.62C60.29,7.1,66.73,9.07,72.51,12.4z M47.32,6.63l-2.9,26.5c-2.19,0.77-4.19,1.93-5.91,3.41L14.11,25.81
		C21.64,14.72,33.93,7.62,47.32,6.63z M8.01,61.9c-2.76-10.32-1.71-21.05,2.91-30.56L32.4,47.09c-0.21,1.11-0.33,2.25-0.33,3.42
		s0.12,2.31,0.33,3.42L10.9,69.69C9.71,67.21,8.73,64.61,8.01,61.9z M28.51,88.61c-5.85-3.38-10.74-7.96-14.42-13.4L38.5,64.48
		c1.72,1.48,3.72,2.65,5.91,3.41l2.91,26.5C40.73,93.92,34.28,91.95,28.51,88.61z M43.7,50.51c0-3.76,3.05-6.81,6.81-6.81
		s6.81,3.05,6.81,6.81c0,3.76-3.05,6.81-6.81,6.81S43.7,54.27,43.7,50.51z M53.7,94.39l2.9-26.5c2.19-0.77,4.19-1.93,5.91-3.41
		l24.39,10.73C79.37,86.3,67.09,93.4,53.7,94.39z M90.1,69.68L68.62,53.93c0.21-1.11,0.33-2.25,0.33-3.42
		c0-1.17-0.12-2.31-0.33-3.42l21.5-15.77c1.19,2.48,2.17,5.08,2.9,7.8C95.77,49.44,94.72,60.17,90.1,69.68z"/>
</g>
</svg>
